HIERARCHY
ROOT Hips
{
	OFFSET 0.00000 0.00000 0.00000
	CHANNELS 6 Xposition Yposition Zposition Yrotation Zrotation Xrotation 
	JOINT Lumbar
	{
		OFFSET 0 0 0
		CHANNELS 3 Zrotation Xrotation Yrotation
		JOINT Neck
		{
			OFFSET 0.00 0.2701 0.00
			CHANNELS 3 Zrotation Xrotation Yrotation
			End Site
			{
				OFFSET 0.00 0.1379 0.00
			}
		}
		JOINT RightShoulder
		{
			OFFSET 0.0119 0.2289 0.1181
			CHANNELS 3 Zrotation Xrotation Yrotation
			JOINT RightElbow
			{
				OFFSET 0.00 -0.1475 0.00
				CHANNELS 2 Zrotation Yrotation
				JOINT RightWrist
				{
					OFFSET 0.00 -0.1605 0.00
					CHANNELS 2 Zrotation Xrotation
					End Site
					{
						OFFSET 0.0040 -0.1068 0.0006
					}
				}
			}
		}
		JOINT LeftShoulder
		{
			OFFSET 0.0119 0.2289 -0.1181
			CHANNELS 3 Zrotation Xrotation Yrotation
			JOINT LeftElbow
			{
				OFFSET 0.00 -0.1475 0.00
				CHANNELS 2 Zrotation Yrotation
				JOINT LeftWrist
				{
					OFFSET 0.00 -0.1605 0.00
					CHANNELS 2 Zrotation Xrotation
					End Site
					{
						OFFSET 0.0040 -0.1068 -0.0006
					}
				}
			}
		}
	}
	JOINT RightHip
	{
		OFFSET 0.0316 -0.0424 0.0458
		CHANNELS 3 Zrotation Xrotation Yrotation
		JOINT RightKnee
		{
			OFFSET 0.00 -0.2438 0.00
			CHANNELS 1 Zrotation
			JOINT RightAnkle
			{
				OFFSET 0.00 -0.2449 0.00
				CHANNELS 3 Zrotation Xrotation Yrotation
				End Site
				{
					OFFSET 0.1237 -0.0542 0.0051
				}
			}
		}
	}
	JOINT LeftHip
	{
		OFFSET 0.0316 -0.0424 -0.0458
		CHANNELS 3 Zrotation Xrotation Yrotation
		JOINT LeftKnee
		{
			OFFSET 0.00 -0.2438 0.00
			CHANNELS 1 Zrotation
			JOINT LeftAnkle
			{
				OFFSET 0.00 -0.2449 0.00
				CHANNELS 3 Zrotation Xrotation Yrotation
				End Site
				{
					OFFSET 0.1237 -0.0542 -0.0051
				}
			}
		}
	}
}
MOTION
Frames: 31
Frame Time: 0.02
-0.00027 3e-05 -0.00044 25.14797 -32.78548 -4.0607 48.91724 2.6514 -5.6772 7.83729 -1.95789 -0.91241 -17.16098 -7.23629 -19.57367 33.75909 142.71306 18.50937 10.80318 -23.15355 13.68375 -1.66287 45.53591 -101.63657 11.83775 -2.2448 44.83908 -1.39393 -5.32592 -19.56645 -6.06522 -2.82043 -3.5774 48.99771 3.65834 1.13822 -24.82171 -6.19904 1.89458 3.13835
-0.00037 1e-05 -0.00066 25.07982 -32.73207 -4.07663 48.95893 2.65924 -5.67622 7.69758 -1.9096 -0.91389 -17.35854 -7.54452 -18.59216 33.51868 137.39373 17.0541 9.87196 -23.43581 13.64161 -1.83361 45.46422 -101.75423 11.93279 -2.24477 44.7784 -1.4497 -5.65482 -19.54897 -6.06038 -2.79042 -3.56092 48.9223 3.77115 1.69679 -24.81942 -6.2121 1.84191 3.11385
-0.00047 -2e-05 -0.00088 25.01174 -32.67876 -4.09252 49.00049 2.6671 -5.67539 7.55849 -1.86156 -0.91537 -17.55471 -7.85206 -17.61344 33.27853 132.09128 15.60357 8.94368 -23.71621 13.60035 -2.00567 45.39239 -101.87283 12.02874 -2.24474 44.71791 -1.50532 -5.98301 -19.53156 -6.05555 -2.76048 -3.54447 48.84711 3.88364 2.25363 -24.81716 -6.22511 1.78942 3.08943
-0.00057 -4e-05 -0.0011 24.94379 -32.6255 -4.1084 49.04205 2.67492 -5.67444 7.41924 -1.81343 -0.91684 -17.75156 -8.15938 -16.63494 33.03876 126.78843 14.15283 8.01534 -23.99752 13.55845 -2.1762 45.32087 -101.99037 12.1237 -2.24471 44.65741 -1.56092 -6.31095 -19.51414 -6.05072 -2.73056 -3.52804 48.77193 3.9961 2.81047 -24.81488 -6.23813 1.73691 3.065
-0.00068 -6e-05 -0.00132 24.87582 -32.57216 -4.12433 49.08375 2.6827 -5.67328 7.2793 -1.76502 -0.91832 -17.95002 -8.4673 -15.65367 32.79899 121.46849 12.69725 7.08404 -24.28087 13.5154 -2.34467 45.24959 -102.10642 12.21727 -2.24468 44.59675 -1.61666 -6.63945 -19.49665 -6.04588 -2.70059 -3.51158 48.69654 4.10887 3.36906 -24.81254 -6.25118 1.68424 3.04049
-0.00078 -8e-05 -0.00154 24.8075 -32.51894 -4.14012 49.125 2.69071 -5.67314 7.14202 -1.7178 -0.9198 -18.14133 -8.77406 -14.68034 32.55808 116.20306 11.2574 6.16215 -24.55496 13.47789 -2.52422 45.17661 -102.23032 12.31817 -2.24463 44.53662 -1.67204 -6.96695 -19.4794 -6.04107 -2.67069 -3.49517 48.62176 4.22078 3.92222 -24.81046 -6.26412 1.63211 3.01625
-0.00088 -0.0001 -0.00176 24.73999 -32.46552 -4.15619 49.1671 2.69826 -5.67095 6.99953 -1.66815 -0.92127 -18.347 -9.08276 -13.69232 32.31958 110.83415 9.78761 5.2224 -24.84785 13.42928 -2.68142 45.10717 -102.33846 12.40433 -2.24462 44.47545 -1.72809 -7.29615 -19.4617 -6.0362 -2.6407 -3.47868 48.54584 4.33427 4.48559 -24.80787 -6.27727 1.57895 2.99151
-0.00098 -0.00012 -0.00198 24.67169 -32.41231 -4.17196 49.20843 2.70623 -5.67064 6.86188 -1.6209 -0.92275 -18.5391 -9.38976 -12.71748 32.0791 105.55994 8.3452 4.29901 -25.12253 13.39091 -2.85898 45.03442 -102.46082 12.50385 -2.24458 44.41529 -1.7835 -7.62371 -19.4444 -6.03139 -2.61079 -3.46226 48.47098 4.44635 5.03976 -24.80573 -6.29023 1.52672 2.96722
-0.00108 -0.00014 -0.00219 24.60254 -32.35925 -4.18755 49.24877 2.71475 -5.67272 6.72997 -1.57597 -0.92424 -18.71583 -9.6945 -11.75974 31.83507 100.40224 6.93662 3.39569 -25.37839 13.36513 -3.06285 44.95769 -102.6021 12.6209 -2.24449 44.35616 -1.83823 -7.94973 -19.42762 -6.02666 -2.58098 -3.44592 48.39733 4.55659 5.58204 -24.80425 -6.30295 1.47569 2.94349
-0.00118 -0.00017 -0.00245 24.53863 -32.30501 -4.20475 49.29468 2.72022 -5.66134 6.56451 -1.51586 -0.92566 -18.98466 -10.0117 -10.70657 31.60805 94.57631 5.33444 2.37708 -25.75285 13.26716 -3.11965 44.90407 -102.63918 12.6407 -2.24465 44.2905 -1.89717 -8.28604 -19.40793 -6.02145 -2.55057 -3.42908 48.31646 4.67706 6.19079 -24.79929 -6.31701 1.41793 2.91656
-0.00128 -0.00019 -0.00261 24.46345 -32.25344 -4.21819 49.32889 2.73203 -5.67816 6.47014 -1.48895 -0.92724 -19.05692 -10.30293 -9.85293 31.34738 90.15922 4.14014 1.60166 -25.8706 13.32128 -3.48377 44.8016 -102.89299 12.86326 -2.2443 44.23898 -1.94705 -8.59967 -19.39433 -6.01728 -2.52146 -3.41334 48.25098 4.77615 6.6605 -24.80146 -6.32828 1.3743 2.89636
-0.00137 -0.00019 -0.00251 24.35878 -32.20781 -4.22411 49.33041 2.76232 -5.77434 6.57039 -1.54455 -0.92923 -18.60291 -10.51944 -9.56693 30.97533 89.65317 4.08047 1.50011 -25.32925 13.79767 -4.722 44.56433 -103.77117 13.66577 -2.24251 44.22362 -1.97333 -8.85916 -19.3981 -6.0159 -2.49553 -3.40036 48.22685 4.81442 6.73485 -24.82499 -6.33152 1.37039 2.89503
-0.00146 -0.0002 -0.00232 24.24253 -32.16518 -4.22571 49.32033 2.79876 -5.89826 6.74205 -1.63513 -0.93139 -17.94927 -10.71034 -9.47761 30.57332 90.55339 4.42743 1.64152 -24.5214 14.42511 -6.26125 44.27812 -104.86003 14.66593 -2.24025 44.22299 -1.99034 -9.09473 -19.40784 -6.0156 -2.47094 -3.38853 48.2184 4.83157 6.67177 -24.85531 -6.33202 1.38053 2.9004
-0.00156 -0.0002 -0.00216 24.13058 -32.12201 -4.22752 49.31592 2.83173 -6.00849 6.88143 -1.71528 -0.93348 -17.37815 -10.91546 -9.2851 30.19708 90.78067 4.57839 1.66746 -23.80629 14.98121 -7.64508 44.01488 -105.83503 15.56228 -2.23818 44.21725 -2.01071 -9.33555 -19.41443 -6.01484 -2.44606 -3.37639 48.20325 4.8599 6.68109 -24.88133 -6.33401 1.38357 2.9024
-0.00164 -0.00021 -0.00205 24.02255 -32.07512 -4.2369 49.30968 2.86769 -6.12425 7.02048 -1.77228 -0.93553 -16.84044 -11.11039 -9.15105 29.76821 91.15378 4.77787 1.71525 -23.21172 15.55215 -9.11592 43.74861 -106.89298 16.5246 -2.23607 44.20462 -2.0344 -9.59863 -19.42297 -6.0139 -2.42006 -3.36343 48.186 4.88181 6.6497 -24.91254 -6.33496 1.38952 2.90572
-0.00174 -0.00021 -0.00181 23.90376 -32.037 -4.22926 49.30468 2.89871 -6.23393 7.17683 -1.886 -0.93771 -16.18685 -11.31954 -8.94213 29.44342 91.55639 4.97217 1.77508 -22.30128 16.12404 -10.46712 43.47685 -107.82048 17.38816 -2.2341 44.21011 -2.0493 -9.81144 -19.42873 -6.01364 -2.39644 -3.35233 48.17723 4.91173 6.66861 -24.93449 -6.33741 1.3929 2.90795
-0.00189 -0.00018 -0.00127 23.75698 -32.01982 -4.17755 49.3044 2.91602 -6.3296 7.36587 -2.14584 -0.94021 -15.25493 -11.5823 -8.47534 29.40074 91.69281 5.05588 1.80843 -20.59922 16.69427 -11.49614 43.20404 -108.39958 18.00001 -2.23112 44.25955 -2.03947 -9.87546 -19.42647 -6.01468 -2.38139 -3.34723 48.1846 4.97212 6.87736 -24.92976 -6.34479 1.38431 2.90486
-0.00206 -0.00016 -0.0006 23.60004 -32.0118 -4.10846 49.30602 2.92784 -6.41625 7.56929 -2.46198 -0.94285 -14.21541 -11.85873 -7.92699 29.46654 91.8112 5.11993 1.84556 -18.58614 17.25379 -12.37876 42.92718 -108.82766 18.49264 -2.2285 44.32711 -2.02156 -9.89211 -19.42102 -6.01645 -2.36831 -3.34377 48.20053 5.04072 7.1385 -24.91543 -6.35377 1.37292 2.90056
-0.00222 -0.00013 2e-05 23.44838 -32.00132 -4.04619 49.30785 2.94123 -6.50096 7.76467 -2.75344 -0.94541 -13.22903 -12.12368 -7.41776 29.4905 91.93892 5.19032 1.88099 -16.70494 17.79712 -13.27487 42.65053 -109.28397 18.99424 -2.22681 44.38812 -2.00921 -9.94154 -19.41629 -6.0181 -2.35276 -3.3388 48.21486 5.10344 7.3641 -24.90504 -6.36195 1.36379 2.89725
-0.00238 -0.0001 0.0006 23.29321 -31.98395 -3.98857 49.30493 2.95884 -6.61281 7.96932 -3.04188 -0.94801 -12.21482 -12.41011 -6.90633 29.48049 92.10844 5.28454 1.92456 -14.85264 18.43588 -14.40626 42.37827 -109.92051 19.69351 -2.2208 44.44288 -1.98884 -9.94492 -19.41479 -6.01884 -2.3437 -3.33702 48.22035 5.17442 7.63359 -24.89639 -6.3703 1.35101 2.89232
-0.00255 -8e-05 0.0013 23.14348 -31.98281 -3.91691 49.31227 2.96617 -6.6648 8.15661 -3.35005 -0.95058 -11.2393 -12.65518 -6.37804 29.56919 92.17147 5.32081 1.94923 -12.87196 18.86977 -15.00788 42.09754 -110.14017 19.9503 -2.22346 44.51433 -1.98304 -10.03039 -19.40582 -6.02167 -2.32185 -3.3291 48.24573 5.23052 7.82697 -24.88208 -6.37876 1.34492 2.89039
-0.00276 -8e-05 0.00235 23.00837 -32.02617 -3.81331 49.349 2.94761 -6.56088 8.29662 -3.69442 -0.95297 -10.36713 -12.78461 -5.81826 29.88808 91.9105 5.18569 1.91677 -10.59713 18.75378 -14.19072 41.78653 -109.27038 19.01324 -2.25379 44.63047 -2.02201 -10.37911 -19.37634 -6.0298 -2.26173 -3.30264 48.32702 5.24298 7.78882 -24.85322 -6.38672 1.35837 2.89712
-0.00298 -8e-05 0.00352 22.87992 -32.08485 -3.69595 49.3953 2.91886 -6.39571 8.41743 -4.05733 -0.95539 -9.54459 -12.87175 -5.2445 30.30526 91.54229 4.99382 1.8647 -8.20958 18.42908 -12.84363 41.46922 -107.9818 17.63514 -2.29216 44.76168 -2.07538 -10.80759 -19.33962 -6.04003 -2.18913 -3.27017 48.42758 5.24057 7.67454 -24.82022 -6.39481 1.37849 2.90686
-0.00319 -7e-05 0.00464 22.75008 -32.13565 -3.58295 49.43689 2.89374 -6.25355 8.544 -4.41461 -0.95777 -8.71942 -12.97709 -4.67901 30.68846 91.2386 4.83663 1.82296 -5.88347 18.19015 -11.73057 41.15977 -106.86611 16.45757 -2.3243 44.88451 -2.12065 -11.18317 -19.30652 -6.0495 -2.12383 -3.24119 48.51697 5.24522 7.60148 -24.78862 -6.40313 1.39524 2.91511
-0.00344 -9e-05 0.00575 22.61199 -32.19201 -3.47642 49.48205 2.87181 -6.13085 8.68396 -4.76228 -0.96004 -7.80466 -13.08704 -4.10164 31.03195 90.86859 4.6419 1.77539 -3.49726 17.98803 -10.63611 40.82756 -105.81385 15.27177 -2.36717 45.0163 -2.17262 -11.6271 -19.27162 -6.05825 -2.05165 -3.209 48.61604 5.24815 7.50235 -24.75451 -6.41036 1.41334 2.92383
-0.00361 -6e-05 0.00691 22.49403 -32.2386 -3.3545 49.51955 2.84193 -5.95395 8.7909 -5.13338 -0.9628 -7.09169 -13.17735 -3.54807 31.47803 90.61127 4.51157 1.7354 -1.22103 17.66134 -9.38546 40.54319 -104.53829 14.00463 -2.38979 45.13043 -2.2136 -11.94861 -19.2392 -6.06889 -1.99093 -3.18212 48.70041 5.2519 7.43856 -24.73004 -6.41979 1.43023 2.93229
-0.00359 7e-05 0.00817 22.41991 -32.26903 -3.18417 49.55458 2.7837 -5.63559 8.81403 -5.56621 -0.96463 -6.9087 -13.22142 -3.05437 32.19952 90.69576 4.57835 1.72025 0.78361 17.02825 -7.7778 40.37647 -102.6961 12.58149 -2.35312 45.21178 -2.22535 -11.90885 -19.21181 -6.08514 -1.96414 -3.17096 48.73257 5.25379 7.49215 -24.69041 -6.43583 1.44235 2.93943
-0.0035 0.00024 0.00947 22.36803 -32.28636 -3.00082 49.57765 2.71954 -5.266 8.80379 -6.02115 -0.96737 -6.9309 -13.2471 -2.58876 33.0166 90.90074 4.712 1.71428 2.65936 16.27966 -6.04269 40.26113 -100.65531 11.1003 -2.2961 45.27094 -2.22454 -11.7437 -19.18788 -6.10302 -1.94956 -3.16547 48.75176 5.25818 7.58301 -24.67023 -6.45397 1.45313 2.94624
-0.00344 0.00038 0.01073 22.31229 -32.30007 -2.82935 49.5924 2.6639 -4.9245 8.80724 -6.46499 -0.97117 -6.86907 -13.28325 -2.1148 33.77969 91.04218 4.81016 1.70364 4.55533 15.59264 -4.40243 40.13271 -98.73918 9.67117 -2.2493 45.3274 -2.22671 -11.63907 -19.16471 -6.11957 -1.92976 -3.15758 48.7798 5.26677 7.65635 -24.66725 -6.47075 1.4642 2.95302
-0.00338 0.00057 0.01207 22.22929 -32.35466 -2.63148 49.66552 2.58312 -4.561 8.81712 -6.915 -0.96876 -6.76816 -13.31085 -1.61532 34.59372 91.19942 4.92349 1.69124 6.62372 14.85951 -2.58602 39.96062 -96.65845 8.11538 -2.19853 45.43887 -2.24163 -11.52373 -19.13134 -6.13876 -1.90771 -3.14856 48.79092 5.25333 7.73134 -24.54773 -6.48922 1.47622 2.96039
-0.0033 0.00068 0.01325 22.20967 -32.32089 -2.48662 49.61412 2.55365 -4.23141 8.80488 -7.35583 -0.97948 -6.79899 -13.35011 -1.1838 35.3194 91.37577 5.02734 1.68893 8.29288 14.19834 -1.11525 39.89189 -94.88469 6.81889 -2.15126 45.42966 -2.22593 -11.39803 -19.12023 -6.15272 -1.89394 -3.14354 48.84037 5.28532 7.81047 -24.68372 -6.50468 1.48663 2.96678
